<?xml version="1.0" encoding="utf-8"?>
<!-- Generator: Adobe Illustrator 25.0.0, SVG Export Plug-In . SVG Version: 6.00 Build 0)  -->
<svg version="1.1" id="レイヤー_1" xmlns="http://www.w3.org/2000/svg" xmlns:xlink="http://www.w3.org/1999/xlink" x="0px"
	 y="0px" viewBox="0 0 49.26 471.43" style="enable-background:new 0 0 49.26 471.43;" xml:space="preserve">
<style type="text/css">
	.st0{fill:#FFFFFF;}
</style>
<g>
	<path class="st0" d="M16.3,42.54c-0.92-1.61-1.65-3.26-2.19-4.92l-0.41-0.1c-1.81,0.53-3.68,1.13-6.02,1.96L6.9,39.75l-0.32-2.78
		l0.45-0.2c2.28-1.03,4.57-1.86,6.81-2.49l0.11-1.92l-0.58-0.07l-4.38,1.4l-1.34-0.96v-1.37L8,31.18c0.61-0.32,0.89-0.78,0.88-1.44
		c-0.67-1.63-1.15-3.44-1.46-5.54c-0.14-0.93-0.27-1.85-0.39-2.78c-0.13-0.92-0.25-1.84-0.39-2.76L6.63,18.6v-0.05
		c0-1.14,0.59-1.88,1.71-2.12l0.11-0.02l1.7,0.21c1.33-0.67,2.74-1.21,4.29-1.63l0.14-3.39l-0.25-1.07H13.4l-7.05,2.23l-0.35-2.42
		l0.4-0.23c2.7-1.52,5.52-2.46,8.61-2.89l0.8-1.87l1.07-0.43l1.58,0.62l0.34,1.42c0.15,0,0.3-0.01,0.45-0.01
		c2.04,0,3.82,0.46,5.32,1.37l0.54,0.33l-1.1,2.1h-1.29l-0.14-0.07c-0.95-0.46-1.93-0.68-3-0.68c-0.36,0-0.75,0.03-1.14,0.08
		c-0.86,1.29-1.25,2.79-1.16,4.47c2.3,0.44,4.5,1.25,6.54,2.4l0.33,0.19l0.13,3.47l-0.01,0.07c-0.12,0.65-0.24,1.31-0.36,1.97
		c-0.33,1.83-0.68,3.73-0.97,5.66l0.28,0.98l-2.05,2.54H20.2l-0.92-0.15l-1.87,0.49l-0.04,0.12l0.28,1.74l0.9,0.1l4.12-0.18
		l0.75,1.38l-0.86,2.02l-1.28,0.47l-0.3-0.28c-0.55-0.51-1.21-0.76-2.03-0.76c-0.24,0-0.5,0.02-0.77,0.07l-0.44,0.32v1.95l1.23,3.2
		l-2.39,0.68L16.3,42.54z M13.11,29.3l6.39-0.58c0.57-0.84,0.82-1.87,0.72-3.07l-0.69-0.85l-3.13-0.2l-2.98,0.77l-2.35,2.16
		c0.25,0.59,0.64,1.13,1.15,1.59L13.11,29.3z M10.01,21.32c0.13,0.77,0.38,1.33,0.81,1.78c1.94-1.03,4.1-1.55,6.42-1.55
		c0.68,0,1.38,0.04,2.09,0.13l0.06,0.01l1.33,0.28c0.41-0.94,0.62-1.88,0.66-2.91c-1.38-0.88-3.02-1.32-4.89-1.32
		c-0.19,0-0.38,0-0.57,0.01c-2.11,0.15-4.01,1.01-5.65,2.54L10.01,21.32z M35.44,41.11l-0.43-1.56l1.6-0.46l0.36,0.1
		c0.53-2.16,0.83-4.3,0.88-6.37c0.05-2.22,0.14-4.46,0.26-6.91c-1.41-0.3-2.95-0.55-4.49-0.7c-1.32,0.01-2.53,0.57-3.52,1.62
		l-0.17,2.53c2.24,0.24,4.49,0.68,6.87,1.36l0.37,0.11l0.52,1.97l-2.4,0.26l-5.04-0.16l-0.36,0.24v0.97l0.8,3.98l1.16,1.43
		l-1.03,1.55h-1.76l-0.19-0.34c-1.34-2.34-2-5-1.94-7.92c0.05-2.49-0.18-5.03-0.72-7.76l-0.06-0.3l0.8-1.03l-0.13-0.89
		c-0.57-3.25-0.51-6.5,0.18-9.66l0.1-0.45l2-0.32l0.74,0.21c2.38-0.7,4.87-1.04,7.63-1.04h0.15l2.18,1.02l0.1,0.26
		c1.1,2.93,1.55,5.89,1.39,9.07l0,0.06l-0.16,1.17l0.17,3.41l-0.01,0.06c-0.26,2.24-0.39,4.68-0.39,7.43c0,2.91-0.4,5.39-1.22,7.58
		l-0.12,0.32l-1.41,0.38L35.44,41.11z M30.81,22.86l4.83-0.57L38,22.73l0.14-3.57l-0.9-4.29l-1.83-0.3l-4.47,0.95
		c-1.17,1.04-1.55,2.27-1.22,3.84l0.01,0.04l0.34,3.47H30.81z"/>
	<path class="st0" d="M5.39,81.5c-0.49,0-0.92-0.16-1.23-0.48c-0.35-0.35-0.53-0.85-0.53-1.49c0-0.88,0.67-2.38,2.17-4.84
		c0.72-1.21,2.39-3.64,3.6-5.41c0.5-0.72,0.92-1.34,1.18-1.73l0.15-0.22c0.03-0.15,0.06-0.31,0.09-0.47
		c-0.28,0.16-0.61,0.25-0.94,0.25c-0.37,0-0.72-0.11-1.02-0.31c-0.46-0.31-0.73-0.77-0.75-1.31c-0.03-0.6,0.25-1.21,0.76-1.62
		c0.96-0.79,2.32-1.46,3.61-1.8c0.84-1.75,1.8-3.07,2.84-3.92c0.53-0.44,1.25-0.7,1.96-0.7c1.11,0,1.88,0.62,1.88,1.5
		c0,0.83-0.54,1.97-1.06,2.9c0.82,0.15,1.54,0.36,2.17,0.64c2.62,1.21,3.84,3.53,3.42,6.54c-0.48,3.42-4.97,6.34-8.31,6.34
		c-0.26,0-0.51-0.02-0.75-0.05c-1.27-0.17-2.83-0.82-3.64-2.86l-0.25,0.38c-0.21,0.33-0.46,0.73-0.72,1.15
		c-0.93,1.47-2.08,3.29-2.41,4.12l-0.15,0.37c-0.19,0.47-0.31,0.78-0.31,1.06c0,1.05-0.66,1.88-1.57,1.96
		C5.53,81.49,5.46,81.5,5.39,81.5z M13.38,69.04c-0.03,0.54,0.02,1.07,0.15,1.5c0.3,1.01,0.94,1.75,1.56,1.82
		c0.09,0.01,0.18,0.01,0.28,0.01c1.84,0,4.38-1.63,5.02-3.24c0.37-0.93,0.26-2.14-0.08-2.6c-0.75-1.01-2.31-1.65-4.11-1.69
		c-0.27,0.37-0.47,0.66-0.66,0.97l-0.22,0.32C14.51,67.31,13.88,68.25,13.38,69.04z M40.52,77.02c-0.76,0-1.46-0.47-1.74-1.17
		c-0.23-0.58-0.48-1.27-0.76-2.03c-0.9-2.45-2.03-5.49-3.28-7.58c-0.23-0.38-0.65-1.11-1.13-1.96c-0.78-1.38-1.75-3.09-2.15-3.66
		c-0.98-1.39-1.63-2.09-2.32-2.5c-0.85-0.51-1.15-1.56-0.7-2.45c0.3-0.59,0.94-0.98,1.64-0.98c0.33,0,0.65,0.09,0.93,0.25
		c0.46,0.3,0.76,0.73,1.5,1.75l0.04,0.06c0.73,1.01,3.78,5.81,4.97,7.91c0.75,1.32,3.33,5.94,4.76,9.86
		c0.35,0.96-0.16,2.02-1.13,2.38C40.94,76.98,40.73,77.02,40.52,77.02z"/>
	<path class="st0" d="M20.43,131.85c-0.49,0-0.96-0.19-1.29-0.51c-0.34-0.34-0.53-0.79-0.53-1.26c0-0.47,0.19-0.92,0.53-1.26
		l0.35-0.35c0.83-0.83,2.23-2.21,3.13-3.35c1.94-2.5,4.09-5.66,3.42-7.85c-0.18-0.57-0.63-0.99-0.97-1.18
		c-0.55-0.3-1.12-0.44-1.76-0.44c-0.84,0-1.69,0.25-2.51,0.49c-0.8,0.24-1.56,0.46-2.32,0.46c-0.53,0-1-0.11-1.42-0.34
		c-0.36-0.2-1.58-0.94-2.15-2.23c-0.23-0.54-0.56-2.15-0.56-3.69c0-3.02,0.6-5.58,1.82-7.83c0.26-0.48,1.45-2.19,2.04-2.63
		c0.36-0.28,0.81-0.44,1.24-0.44c0.5,0,0.96,0.21,1.29,0.59c0.29,0.32,0.43,0.73,0.4,1.18c-0.04,0.71-0.47,1.33-0.85,1.67
		c-0.31,0.26-0.88,0.89-1.18,1.33c-1.2,1.8-1.9,5.97-1.53,7.67c0.33,1.57,0.61,1.57,1.08,1.57l0,0c0.18,0,0.4-0.02,0.68-0.07
		c0.57-0.09,1.14-0.23,1.7-0.36c0.97-0.23,1.97-0.48,2.96-0.48c1.09,0,2.03,0.3,2.85,0.91c1.53,1.13,2.35,2.48,2.51,4.12
		c0.19,1.75-0.1,2.73-1.12,4.94c-1.05,2.27-3.86,6-5.68,7.82c-0.31,0.31-0.58,0.63-0.86,0.96
		C21.39,131.65,20.93,131.85,20.43,131.85z M28.97,109.45c-0.46,0-0.92-0.21-1.25-0.57c-0.35-0.39-0.53-0.89-0.48-1.4
		c0.19-1.94-0.28-4.68-1.25-7.33c-0.33-0.91-0.76-1.79-0.97-2c-0.35-0.35-0.54-0.81-0.52-1.29c0.02-0.51,0.26-1.01,0.66-1.37
		c0.33-0.3,0.73-0.46,1.16-0.46c0.76,0,1.47,0.52,1.86,1.35c1.04,2.26,2.7,8.84,2.7,11.33C30.88,108.68,30.04,109.45,28.97,109.45z"
		/>
	<path class="st0" d="M4.65,180.41l0.52-0.37c2.07-1.5,4.27-2.66,6.7-3.55c-0.21-1.38-0.25-2.84-0.12-4.53l-0.14-0.05l-2.44,1.71
		l-0.92,1.19H6.81l-1.07-1.75l0.31-0.37c1.6-1.89,3.37-3.11,5.42-3.74c0.27-1.64,0.38-3.2,0.33-4.72c-1.6,0.57-2.88,1.15-4.11,1.86
		l-0.76,0.44l-0.46-1.68l0.73-1.8c-0.32-1.28-0.87-2.52-1.59-3.61l-0.16-0.24l0.19-0.89c-0.71-2.22-1.14-4.74-1.32-7.67l-0.02-0.32
		l3.25-3.07l0.14-0.05c2.96-0.97,6.13-1.54,9.42-1.71l0.13-0.01l4.04,1.39l0.1,0.33c0.67,2.19,0.87,4.53,0.59,6.95l-0.16,2.43
		l0.18,0.65l-0.57,3.63l0.12,0.9c0.65-0.64,1.41-1.16,2.23-1.52c1.84-0.67,3.71-1.19,5.74-1.61c1.74-0.36,3.41-0.66,5.08-0.9
		c-2.16-1.47-4.73-2.26-7.66-2.36l-0.45-0.02l-0.76-2.07l0.56-0.26c0.75-0.35,1.46-0.52,2.17-0.52c0.27,0,0.55,0.03,0.82,0.08
		l2,0.52c1.59-1.83,2.79-3.58,3.64-5.33l-0.74-0.29c-2.75,0.4-5.15,1.48-7.34,3.3l-0.55,0.46l-1.58-2.14l2.33-2.04l0.09-0.04
		c2.56-1.2,5.55-1.9,8.88-2.08l0.19-0.01l1.41,0.78l0.55,1.72l-0.09,0.23c-0.98,2.37-2.31,4.61-3.96,6.68l3.37,2.41l3.95,3.65v0.97
		l-0.01,0.05c-0.33,1.98-1.28,3.59-2.83,4.79l-0.05,0.03l-3.94,2.54c-0.99,1.91-1.55,3.78-1.69,5.69c-0.23,2.31-0.8,4.4-1.74,6.4
		l-0.06,0.12l-0.1,0.09c-0.71,0.65-1.53,0.99-2.43,0.99c-0.15,0-0.31-0.01-0.47-0.03l-0.44-0.06l-0.46-1.6l2.12-2
		c0.52-1.92,0.89-3.91,1.11-5.93c0.28-2.1,0.45-4.23,0.61-6.3c-0.26-1.76-0.56-3.5-0.86-5.15l-0.3-0.08
		c-2.77,0.39-5.31,1.7-7.56,3.89l-0.96,0.94l-0.4-2.97l-1.61,0.55l-2-0.17l-2.26,0.51l-0.57,1.89l0.17,1.23l-0.17,0.55l0.17,1
		l0,0.02l3.78,0.52l0.49,1.82l-1.62,0.75l-1.45-0.59l-1.07,0.73c-0.31,1.1-0.42,2.27-0.34,3.48l0.49,0.2l5.7-2.15l0.64,1.17
		c-2.34,1.73-4.88,3.13-7.55,4.18c-2.46,0.96-4.83,2.16-7.23,3.65l-0.56,0.35L4.65,180.41z M33.71,166.24l0.12-0.03
		c1.96-1.23,3.53-2.75,4.69-4.5v-0.59c-0.59-0.55-1.3-0.84-2.27-0.95l-2.77,0.47l-0.04,0.21l0.56,3.05l-0.4,1.42L33.71,166.24z
		 M10.52,161.77l1.33-0.38l0.4-3.06h-1.61l-0.98,0.45l-0.63,1.48l0.42,1.14L10.52,161.77z M14.98,160.7
		c0.26,0.11,0.52,0.16,0.8,0.16c0.15,0,0.31-0.02,0.46-0.05l2.09-0.34c0.49-1.09,0.74-2.3,0.74-3.6c0-2.19,0.06-4.37,0.17-6.65
		c0-0.68-0.22-1.29-0.64-1.77l-1.39-0.35l-0.55,0.22l-0.96-0.21l-0.09,0.05c0.6,0.53,0.83,1.25,0.63,2.03l-0.02,0.08l-0.04,0.08
		c-0.77,1.4-1.09,3-0.98,4.86l3.41,0.17v2.41l-1.7,0.38l-1.02-0.3C15.45,158.68,15.15,159.61,14.98,160.7z M8.1,156.81
		c1.25-0.85,2.63-1.37,4.1-1.56c0.13-2.37,0.51-4.58,1.13-6.73h-0.77l-3.64,1.25c-0.99,1.19-1.5,2.61-1.51,4.22L8.1,156.81z"/>
	<path class="st0" d="M12.91,232.31l0.25-0.29c1.83-2.1,3.36-3.6,4.97-4.85c1.26-0.92,2.46-1.85,3.62-2.76
		c0.56-0.44,1.11-0.87,1.65-1.28l0.05-0.04l0.98-0.49l0.03-0.19l-1.25-0.24c-0.5,0.11-1,0.23-1.5,0.35
		c-1.43,0.34-2.91,0.68-4.38,0.97c-1.78,0.34-3.56,1.01-5.3,1.99c-0.34,0.76-0.96,0.88-1.33,0.88c-0.17,0-0.35-0.02-0.56-0.07
		l-0.36-0.09l-0.62-1.95l1.36-1.58l0.15-0.06c2.51-1.07,5.1-1.69,7.07-2.11c2.23-0.48,4.5-0.95,6.78-1.43l0.98-3.52h1.68l0.14,0.07
		c0.48,0.24,1.24,0.87,0.92,2.37l-0.19,0.78c0.69,0.16,1.4,0.24,2.11,0.24c0.26,0,0.52-0.01,0.78-0.03l1.06-0.18l6.83,1.03l0.6,1.63
		l-0.05,0.2c-0.17,0.69-0.75,1.1-1.54,1.1c-0.14,0-0.29-0.01-0.45-0.04l-0.1-0.02l-0.09-0.05c-0.85-0.43-1.91-0.76-3-0.93l-1.2,0.22
		l-4.86-0.22l-0.27,0.17l-0.17,1.46l0.61,1.4c0.67,0.32,1.34,0.63,2,0.94c0.94,0.44,1.92,0.89,2.88,1.37
		c1.65,0.83,3.35,1.51,4.99,2.16l0.31,0.12l0.09,0.33l0.4,1.47h-2.31l-0.08-0.02c-3.29-0.87-6.13-1.89-8.63-3.12l-0.04,0.11
		l0.41,2.44l-2.61,0.76l-1.03-4.71c-0.94,0.59-1.85,1.19-2.81,1.82c-0.41,0.27-0.82,0.54-1.23,0.81c-1.48,0.88-2.79,1.97-4.06,3.03
		c-0.44,1.08-1.25,1.78-2.37,2.05l-0.6,0.14L12.91,232.31z M22.73,217.67c-1.19-0.46-2.1-1.38-2.57-2.57l-0.03-0.09l-0.35-3.77
		v-0.03c0-0.46,0-1.85,1.37-2.41l0.17-0.07c-1.39,0.55-2.69,1.14-3.92,1.79c-0.27,0.58-0.74,0.98-1.32,1.13l-0.58,0.15l-0.81-2.12
		l2.42-2.62l4.42-1.51c-0.91-1.59-1.51-3.27-1.83-5.1l-0.94-0.13c-2.38,1.05-5.14,2-8.66,2.98l-0.34,0.09l-1.52-1.27v-1.38
		l0.41-0.17c1.75-0.74,3.63-1.38,5.75-1.94c1.61-0.38,3.48-0.86,5.37-1.55l1.12-2.98l1.76-0.64l1.73,0.66l0.41,1.43l-0.83,1.11
		l1.97-0.76l3.24,0.35c0.52-1.36,0.9-2.51,1.19-3.6l0.09-0.34l1.23-0.45l1.61,0.89l0.45,1.23l-0.26,0.3
		c-0.55,0.62-0.87,1.34-0.98,2.14l6.01,1.04l0.34,1.46l-1,1.36H36.7l-4.63-0.94c-0.82,1.19-1.17,2.46-1.08,3.96
		c0.02,0,0.04,0,0.07,0c1.98,0,4.01,0.22,6.02,0.64l0.46,0.1l0.29,2.05l-2.04,1.45l-1-1.28l-1.85-0.14
		c-2.91,0.11-5.55,0.56-8.08,1.37c-1.23,0.38-2.4,0.79-3.5,1.23l2.18,0.59v1.14l-0.59,2.91l0.61,1.69l1.6,1.52l-2.12,1.23
		L22.73,217.67z M24.6,204.68l1.01-0.53h1.52l1.32-0.42c-0.16-1.41-0.1-2.87,0.18-4.44c-0.93-0.17-1.81-0.26-2.67-0.26
		c-0.4,0-0.81,0.02-1.21,0.06l-1.71,0.63L22.72,201l0.83,3.13L24.6,204.68z M32.68,215.53l-0.65-2.11l1.4-5.68h2.16l0.65,1.66
		l-1.96,6.13H32.68z M27.52,213.75l-0.07-0.08c-1.04-1.23-1.42-2.82-1.1-4.59l0.03-0.15l0.85-1.19h2.14l0.86,1.51l-0.27,0.35
		c-0.45,0.58-0.61,1.23-0.5,2.04l1.04,2.37l-1.59,0.58L27.52,213.75z"/>
	<path class="st0" d="M27.54,275.4c-3.42,0-6.1-0.77-7.95-2.3c-2.81-2.43-1.96-6.27,0.12-9c0.46-0.61,1.11-1.29,1.84-1.91
		c-0.41-0.97-0.75-2.05-0.96-3.1c-0.36-1.5-0.56-2.98-0.58-4.37c-1.36,0.16-2.31,0.29-2.95,0.41c-1.07,0.21-2.18,0.48-3.06,0.94
		c-0.42,0.21-0.79,0.31-1.14,0.31c-0.52,0-0.98-0.23-1.32-0.65c-0.85-1.13-0.03-2.05,0.41-2.55l0.03-0.03l0.04-0.03
		c0.83-0.71,2.19-0.93,3.19-1.1l0.38-0.06c1.26-0.21,2.96-0.42,4.78-0.62c0.35-1.36,1.04-2.32,2.03-2.84
		c0.32-0.17,0.65-0.26,0.97-0.26c0.63,0,1.17,0.34,1.5,0.92c0.3,0.6,0.23,1.25-0.15,1.79c0.54-0.05,1.06-0.08,1.54-0.11
		c0.34-0.01,0.68-0.04,1.01-0.06c0.58-0.04,1.18-0.07,1.77-0.07c0.49,0,0.92,0.03,1.33,0.08c1.28,0.18,1.93,0.84,1.93,1.96l0,0.07
		c-0.11,1.06-0.73,1.64-1.75,1.64c-0.23,0-0.5-0.03-0.84-0.09c-0.44-0.07-1.13-0.11-2.05-0.11c-1.44,0-3.1,0.09-4.42,0.19
		c0.06,1.13,0.25,2.43,0.42,3.59c0.13,0.68,0.34,1.67,0.68,2.64c0.32-0.08,0.63-0.12,0.93-0.12c1.11,0,2.07,0.52,2.86,1.55
		c0.53,0.73,0.91,1.91,0.59,2.93c-0.22,0.69-0.7,1.18-1.41,1.42c-0.29,0.1-0.58,0.14-0.88,0.14c-1.27,0-2.45-0.84-3.17-1.66
		c-0.92,0.88-1.72,2-1.95,2.47c-0.37,0.86-0.8,2.52,0.67,3.51c1.17,0.86,3.34,1.37,5.85,1.37c2.14,0,4.11-0.38,5.28-1.01
		c0.15-0.08,0.29-0.17,0.42-0.26c0.39-0.26,0.87-0.58,1.46-0.58c0.13,0,0.27,0.02,0.39,0.05l0.04,0.01l0.04,0.02
		c0.47,0.19,0.84,0.6,1,1.09c0.15,0.47,0.08,0.97-0.18,1.36c-1.06,1.37-4.71,2.22-6.85,2.37C28.78,275.38,28.15,275.4,27.54,275.4z"
		/>
	<path class="st0" d="M21.42,337.91c-0.39,0-0.77-0.13-1.08-0.38c-3.32-2.59-4.78-9.33-4.46-20.62c0.05-2.22,0.42-5.76,0.98-9.41
		c-4.07,0.77-6.91,1.6-8.45,2.45c-0.25,0.14-0.55,0.22-0.86,0.22c-0.66,0-1.28-0.35-1.62-0.91c-0.28-0.48-0.33-1.01-0.15-1.5
		c0.18-0.47,0.56-0.84,1.02-1c4.34-1.43,6.73-2.14,10.63-2.76c0.86-4.33,1.72-6.95,2.56-7.79c0.45-0.45,0.99-0.7,1.51-0.7
		c0.32,0,0.63,0.09,0.9,0.27c1.23,0.82,0.59,2.09,0.17,2.94c-0.62,1.24-1.16,2.82-1.64,4.81c0.01,0,0.02,0,0.03,0
		c2.68-0.35,6.82-0.73,9.85-1c0.97-0.09,1.83-0.17,2.53-0.24c0.58-0.06,1.21-0.12,1.86-0.12c1.05,0,1.85,0.75,1.85,1.74
		c0,0.86-0.62,1.77-1.81,1.85c-0.11,0.01-0.25,0.02-0.38,0.02c-0.24,0-0.48-0.02-0.72-0.04c-0.22-0.02-0.45-0.04-0.68-0.04
		c-2.2,0-9.14,0.65-12.52,1.11l-0.69,0.1c-0.53,3.21-0.85,6.89-1.09,10.1c-0.43,6.43,0.44,14.69,3.39,17.64
		c0.74,0.74,0.86,1.78,0.28,2.51C22.49,337.65,21.97,337.91,21.42,337.91z M31.56,325.88c-0.75,0-1.67-0.6-1.83-1.48
		c-0.17-0.96,0.43-1.91,1.38-2.17c0.14-0.03,0.26-0.05,0.38-0.05c0.09,0,0.18,0.01,0.26,0.02c0.03,0,0.06,0.01,0.09,0.01
		c1.68,0,3.68-0.6,4-0.97c0.14-0.62,0.71-1.05,1.43-1.05c0.4,0,0.78,0.13,1.09,0.37c0.46,0.36,0.74,0.95,0.74,1.55
		c0,0.55-0.25,1.04-0.69,1.37c-0.74,0.54-2.9,1.4-3.46,1.56c-1.04,0.32-1.9,0.52-2.47,0.66c-0.23,0.05-0.4,0.09-0.51,0.13
		C31.87,325.86,31.72,325.88,31.56,325.88z M26.78,321.14c-0.28,0-0.55-0.06-0.78-0.18c-0.37-0.19-0.69-0.54-0.87-0.97
		c-0.21-0.5-0.21-1.01,0.01-1.45c1.39-2.84,4.37-4.55,6.62-5.48c1.26-0.52,2.18-0.75,2.99-0.75c1.22,0,2.22,0.53,3.22,1.73
		c0.39,0.47,0.56,1.02,0.49,1.56c-0.07,0.51-0.35,0.97-0.78,1.28c-0.31,0.22-0.68,0.34-1.05,0.34c-0.61,0-1.2-0.31-1.57-0.84
		c-0.14-0.21-0.23-0.43-0.27-0.65c-0.71,0.03-2.39,0.65-2.9,0.99c-2.63,1.76-3.28,2.81-3.43,3.29
		C28.25,320.67,27.57,321.14,26.78,321.14z"/>
	<path class="st0" d="M34.16,370.45c-1.91-0.16-4.41-2.8-5.4-3.93c-0.47-0.53-1.46-1.8-2.51-3.15c-1.06-1.37-2.16-2.78-2.58-3.22
		l-0.24-0.27c-0.48-0.53-1.27-1.43-1.84-1.43c-1.62,0.09-4.56,2.84-6.2,5.77c-0.82,1.43-1.13,2.86-1.5,4.73
		c-0.18,0.91-0.85,1.49-1.71,1.49c-0.18,0-0.36-0.03-0.54-0.08c-1-0.33-1.34-1.24-1.02-2.69c0.98-4.61,3.37-8.42,6.72-10.73
		c1.27-0.88,2.77-1.78,4.35-1.78c0.94,0,1.83,0.33,2.62,0.97c1.76,1.4,3.08,3.23,4.36,4.99c1.43,1.98,2.79,3.85,4.68,5.12
		c0.18,0.12,0.46,0.22,0.76,0.33c0.65,0.24,1.38,0.51,1.75,1.19c0.3,0.59,0.26,1.26-0.08,1.81c-0.33,0.54-0.9,0.86-1.51,0.86
		C34.24,370.45,34.2,370.45,34.16,370.45z M38.08,357.17c-1.69,0-3.02-0.74-4.29-2.39c-1.49-1.93-1.71-4.49-1.71-5.85v-0.06
		c0-0.96,0.84-1.79,1.79-1.79c0.97,0,1.74,0.79,1.74,1.79c0,0.24-0.01,0.47-0.02,0.69c-0.03,0.9-0.06,1.56,0.5,2.58
		c0.64,1.22,1.19,1.38,1.65,1.38c1.01,0,1.77,0.56,2,1.46c0.13,0.49,0.01,1.05-0.32,1.5C39.08,356.92,38.59,357.17,38.08,357.17z
		 M43.37,354.05c-0.37,0-0.77-0.08-1.2-0.22c-2.17-0.78-4.28-3.49-5.17-5.65l-0.07-0.16c-0.33-0.77-0.71-1.65-0.71-2.62
		c0-0.99,0.6-1.77,1.49-1.95c0.12-0.02,0.22-0.03,0.32-0.03c0.96,0,1.77,0.78,1.77,1.7c0,0.76,0.15,2.22,1.13,3.38
		c1.14,1.35,2.12,1.95,2.57,1.95c0.45,0,0.87,0.19,1.19,0.53c0.36,0.39,0.54,0.93,0.49,1.49C45.13,353.42,44.41,354.05,43.37,354.05
		z"/>
	<path class="st0" d="M16.11,415.13c-1.49,0-2.9-1.03-3.68-2.68c-0.88-1.88-1.24-4.47,0.35-6.13c0.75-0.81,1.45-1.57,2.4-2.22
		c0.44-0.31,0.88-0.6,1.38-0.87c-0.04-3.19-0.02-6.31,0.45-9.37c-0.04,0.03-0.07,0.07-0.11,0.1c-0.32,0.3-0.68,0.64-1.12,0.91
		c-0.32,0.19-0.65,0.28-0.98,0.28c-0.63,0-1.2-0.36-1.48-0.93c-0.3-0.62-0.21-1.38,0.25-1.97c2.2-2.84,8.68-4.37,13.65-4.37
		c1.03,0,1.95,0.07,2.74,0.2c0.81,0.13,1.47,0.64,1.71,1.31c0.22,0.61,0.07,1.27-0.41,1.81c-0.31,0.37-0.75,0.56-1.25,0.56
		c-0.25,0-0.52-0.05-0.78-0.15c-0.53-0.21-0.97-0.3-1.71-0.35c-0.19-0.01-0.39-0.02-0.61-0.02c-1.82,0-4.25,0.38-6.26,0.98
		c-0.19,0.31-0.37,0.74-0.45,1.05c-0.19,0.87-0.3,1.9-0.4,2.89l-0.03,0.27c-0.15,1.41-0.12,2.89-0.08,4.32
		c0.01,0.31,0.01,0.61,0.02,0.92c2.17-0.91,4.59-1.56,7.2-1.94c0.44-0.06,0.97-0.14,1.49-0.14c2.14,0,2.37,1.38,2.37,1.98
		c0,0.85-0.62,1.54-1.55,1.72c-0.13,0.03-0.31,0.04-0.54,0.04c-0.27,0-0.61-0.02-0.96-0.05c-0.34-0.02-0.68-0.05-0.98-0.05
		c-0.09,0-0.17,0-0.24,0.01c-1.47,0.09-4.32,0.86-6.72,1.99v0.25c0,0.48,0.01,0.97,0.02,1.45c0.04,1.65,0.08,3.35-0.32,4.99
		c-0.37,1.47-0.94,2.39-1.75,2.79C17.2,415,16.66,415.13,16.11,415.13z M16.58,407.11c-0.51,0.34-0.97,0.71-1.29,1.18
		c-0.36,0.51-0.49,1.25-0.35,1.98c0.14,0.71,0.5,1.29,1,1.61c0.14,0.09,0.2,0.09,0.21,0.09c0.06-0.05,0.27-0.49,0.33-1.42
		C16.55,409.41,16.57,408.25,16.58,407.11z"/>
	<path class="st0" d="M13.46,466.98c-0.76,0-1.48-0.52-1.75-1.26c-0.33-0.92,0.07-1.9,0.95-2.35c0.4-0.2,0.64-0.32,0.83-0.4
		c0.47-0.22,0.5-0.24,1.87-1.08c5.84-3.61,12.84-11.22,14.98-16.28c0.73-1.74,0.85-3.11,0.37-4.08c-0.38-0.77-1.18-1.31-2.39-1.62
		c-0.81-0.21-1.71-0.31-2.7-0.31c-3.06,0-6.47,1.01-8.69,2.57c-0.64,0.45-1.42,1.17-1.6,1.69c-0.26,0.72-0.94,1.2-1.69,1.2
		c-0.22,0-0.44-0.04-0.65-0.12c-0.62-0.26-1.02-0.71-1.14-1.29c-0.15-0.73,0.2-1.56,0.97-2.33c0.35-0.35,1.41-1.41,2.83-2.24
		c2.87-1.68,6.68-2.72,9.96-2.72c2.56,0,4.76,0.62,6.37,1.81c2.35,1.73,2.95,5.4,1.45,8.72c-2.43,5.36-8.39,12.03-15.95,17.86
		c-0.77,0.59-2.5,1.68-3.31,2.09C13.94,466.92,13.71,466.98,13.46,466.98z M22.72,435.43c-0.65,0-1.24-0.42-1.48-1.05
		c-0.52-1.35-1.98-3.54-3.48-3.96c-1.01-0.28-1.57-1.17-1.31-2.11c0.22-0.82,0.9-1.36,1.71-1.36c0.11,0,0.23,0.01,0.35,0.03
		c1.85,0.36,4.98,4.35,5.67,6.39c0.27,0.82-0.14,1.66-0.96,1.97C23.07,435.4,22.9,435.43,22.72,435.43z"/>
</g>
</svg>
