<?xml version="1.0" encoding="utf-8"?>
<!-- Generator: Adobe Illustrator 25.0.0, SVG Export Plug-In . SVG Version: 6.00 Build 0)  -->
<svg version="1.1" id="レイヤー_1" xmlns="http://www.w3.org/2000/svg" xmlns:xlink="http://www.w3.org/1999/xlink" x="0px"
	 y="0px" viewBox="0 0 49.26 471.43" style="enable-background:new 0 0 49.26 471.43;" xml:space="preserve">
<style type="text/css">
	.st0{fill:#FFFFFF;}
</style>
<g>
	<path class="st0" d="M22.53,46.48c-0.35,0-0.69-0.12-0.99-0.35c-0.57-0.42-0.73-0.9-0.78-1.22c-0.06-0.46,0.09-0.94,0.44-1.37
		l0.14-0.18c0.24-0.3,0.57-0.72,0.9-1.1c1.74-2.02,3.89-6.69,4.59-9.98c0.73-3.31,0.97-7.7-1.98-9.86c-0.55-0.4-1.36-0.61-2.35-0.61
		c-1.06,0-2.27,0.24-3.51,0.69c-0.93,0.32-1.86,0.82-2.87,1.52c-0.41,4.42-1.05,7.68-2.01,10.25c-0.65,1.73-2.24,3.59-4.19,3.59
		c-0.48,0-0.94-0.12-1.37-0.35c-1.73-0.94-1.7-3.91-0.93-6.28c1.32-4.02,2.44-6.21,5.88-9.09c0.2-1.5,0.31-3.09,0.42-4.62
		c0.03-0.69,0.1-1.56,0.18-2.49c0.03-0.34,0.06-0.69,0.08-1.05c-1.95,0.85-3.96,1.85-5.54,2.76c-0.36,0.2-1.71,1.38-1.97,1.9
		c-0.28,0.57-0.89,0.92-1.57,0.92c-0.34,0-0.68-0.09-0.97-0.27c-0.9-0.54-1.05-1.73-0.62-2.5c0.18-0.37,0.76-0.87,3.52-2.62
		c2.02-1.26,4.92-2.68,7.51-3.68c0.11-1,0.2-1.69,0.25-1.96c0.22-1.04,1-2.08,2.25-2.08c0.4,0,0.81,0.11,1.23,0.34
		c1.16,0.65,2.83,1.64,4.23,2.67c0.4,0.3,0.61,0.82,0.55,1.36c-0.06,0.62-0.46,1.15-1.06,1.43c-0.2,0.08-0.39,0.12-0.62,0.12
		c-0.24,0-0.46-0.04-0.66-0.08c-0.11-0.02-0.21-0.04-0.29-0.04c-0.92,0-1.93,0.26-2.97,0.55c-0.11,0.03-0.21,0.05-0.32,0.08
		l-0.13,1.48l-0.29,3.36c-0.08,0.76-0.15,1.55-0.21,2.34c1.75-0.93,3.61-1.42,5.44-1.42c1.24,0,2.44,0.22,3.56,0.67
		c3.61,1.41,4.9,5.97,4.9,9.76c0,4.62-2.91,11.45-5.64,15.52c-0.06,0.09-0.13,0.2-0.19,0.31c-0.18,0.29-0.37,0.62-0.63,0.87
		C23.52,46.24,23.02,46.48,22.53,46.48z M12.49,28.05c-1.57,2.47-2.76,5.99-2.44,6.64c0.18-0.03,1.03-0.35,1.98-4.15
		c0.23-0.86,0.44-1.78,0.64-2.77C12.6,27.86,12.54,27.95,12.49,28.05z M17.52,9.14c-0.03,0.09-0.07,0.22-0.1,0.36
		c0.12-0.04,0.25-0.07,0.36-0.1C17.69,9.3,17.59,9.2,17.52,9.14z M40.6,11.99c-0.34,0-0.7-0.11-1.07-0.32
		c-1.88-1.08-4.04-6.07-3.85-8.19c0.09-0.94,0.82-1.66,1.71-1.66c0.94,0,1.71,0.77,1.71,1.71c0,0.93,0.11,1.79,0.63,3
		c0.35,0.83,1.02,1.86,1.47,2.08c0.85,0.42,1.22,1.4,0.87,2.28C41.79,11.6,41.26,11.99,40.6,11.99z"/>
	<path class="st0" d="M12.53,90.03c-0.35,0-0.71-0.09-1.03-0.25c-3.42-1.69-5.42-6.36-5.8-13.51c-0.3-5.65,0.47-12.64,2.05-18.69
		c0.12-0.48,0.23-0.95,0.33-1.39c0.23-1.02,0.42-1.83,0.7-2.31c0.41-0.61,1.03-0.98,1.64-0.98c0.25,0,0.49,0.06,0.71,0.17
		c0.9,0.41,1.33,1.39,0.99,2.31C10.12,60.9,9.04,66.37,8.75,72.6c-0.31,5.99,1.11,12.74,4.4,14.04c0.92,0.37,1.37,1.37,1.04,2.28
		C13.92,89.62,13.3,90.03,12.53,90.03z M25.94,79.66c-0.14,0-0.29-0.01-0.43-0.02c-2.25-0.2-3.89-1.61-4.1-3.52
		c-0.28-2.49,1.75-4.24,3.58-4.98c0.68-0.27,1.37-0.48,2.15-0.66c-0.03-0.16-0.05-0.32-0.08-0.48c-0.13-0.84-0.27-1.71-0.36-2.98
		c-0.03-0.27-0.04-0.54-0.05-0.81c-2.02,0.75-3.92,1.58-5.29,2.34c-1.05,0.59-2.94,1.78-3.78,3c-0.33,0.5-0.88,0.79-1.47,0.79
		c-0.33,0-0.66-0.1-0.93-0.28c-0.47-0.31-0.79-0.83-0.84-1.36c-0.04-0.44,0.1-0.84,0.4-1.15c1.24-1.24,2.22-2.01,3.87-3.05
		c2.2-1.36,5.16-2.63,8.36-3.61c0.36-1.47,1.12-2.8,2.2-3.88c0.33-0.33,0.75-0.51,1.21-0.51c0.45,0,0.9,0.18,1.22,0.5
		c0.33,0.33,0.5,0.78,0.47,1.25c-0.03,0.54-0.32,1.06-0.76,1.4c-0.03,0.02-0.07,0.05-0.11,0.1c1.35-0.3,2.73-0.57,4.06-0.7
		c0.37-0.04,0.76-0.08,1.17-0.08c0.18,0,0.36,0.01,0.55,0.03c0.5,0.04,0.97,0.29,1.3,0.67c0.3,0.36,0.45,0.81,0.41,1.27
		c-0.09,0.94-0.92,1.65-1.94,1.65c-0.1,0-0.3-0.02-0.57-0.05c-0.45-0.05-1.12-0.13-1.75-0.13c-0.11,0-0.22,0-0.33,0.01
		c-1.08,0.05-2.55,0.32-4.18,0.77c-0.06,1.25,0.15,3.25,0.31,4.75l0.01,0.09c0.41-0.02,0.82-0.03,1.24-0.03
		c1.66,0,3.09,0.17,3.99,0.31c0.5,0.08,0.92,0.34,1.19,0.74c0.28,0.39,0.38,0.89,0.3,1.36c-0.14,0.83-0.93,1.48-1.81,1.48
		c-0.26,0-0.51-0.06-0.75-0.17c-0.48-0.22-1.11-0.39-1.93-0.51c-0.48-0.07-0.99-0.11-1.5-0.11c-0.16,0-0.33,0-0.49,0.01
		c0.03,1.25-0.03,2.28-0.21,3.14C29.85,78.48,27.77,79.66,25.94,79.66z M27.4,73.52c-1.15,0.31-2.09,0.79-2.69,1.38
		c-0.26,0.26-0.34,0.62-0.22,0.96c0.15,0.43,0.59,0.71,1.2,0.76c0.09,0.01,0.18,0.01,0.27,0.01c0.69,0,0.94-0.27,1.09-0.54
		c0.23-0.41,0.35-1.08,0.35-2.04C27.4,73.87,27.4,73.69,27.4,73.52z"/>
	<path class="st0" d="M14.79,132.94c-1.5,0-2.91-1.03-3.69-2.7c-0.88-1.89-1.26-4.51,0.34-6.17c0.77-0.83,1.48-1.59,2.44-2.25
		c0.45-0.32,0.91-0.63,1.43-0.9c-0.05-3.31-0.02-6.55,0.49-9.72c-0.07,0.07-0.15,0.14-0.23,0.21c-0.32,0.31-0.68,0.65-1.13,0.91
		c-0.32,0.18-0.65,0.28-0.97,0.28c-0.62,0-1.18-0.35-1.46-0.91c-0.3-0.61-0.2-1.36,0.25-1.94c2.23-2.87,8.79-4.43,13.84-4.43
		c1.04,0,1.98,0.07,2.78,0.2c0.81,0.13,1.45,0.63,1.69,1.3c0.21,0.6,0.06,1.25-0.41,1.79c-0.31,0.36-0.73,0.55-1.23,0.55
		c-0.25,0-0.51-0.05-0.77-0.15c-0.54-0.22-1-0.31-1.76-0.36c-0.19-0.01-0.4-0.02-0.62-0.02c-1.86,0-4.35,0.39-6.41,1.01
		c-0.2,0.33-0.39,0.77-0.48,1.1c-0.2,0.89-0.31,1.94-0.41,2.95l-0.03,0.27c-0.16,1.44-0.12,2.94-0.08,4.4
		c0.01,0.34,0.02,0.68,0.02,1.02c2.23-0.94,4.71-1.61,7.39-2c0.45-0.06,0.98-0.14,1.5-0.14c2.05,0,2.35,1.23,2.35,1.96
		c0,0.83-0.61,1.52-1.53,1.7c-0.13,0.03-0.31,0.05-0.54,0.05c-0.28,0-0.62-0.02-0.97-0.05c-0.34-0.02-0.7-0.05-1-0.05
		c-0.09,0-0.17,0-0.25,0.01c-1.51,0.1-4.44,0.88-6.89,2.05v0.29c0,0.49,0.01,0.98,0.03,1.48c0.04,1.67,0.09,3.4-0.33,5.06
		c-0.37,1.48-0.94,2.4-1.75,2.8C15.88,132.8,15.34,132.94,14.79,132.94z M15.32,124.72c-0.56,0.37-1.07,0.77-1.42,1.27
		c-0.38,0.53-0.51,1.3-0.36,2.06c0.14,0.73,0.52,1.35,1.04,1.68c0.16,0.1,0.23,0.1,0.24,0.1c0.09-0.05,0.33-0.5,0.39-1.5
		C15.3,127.14,15.32,125.92,15.32,124.72z"/>
	<path class="st0" d="M12.09,187.71c-0.75,0-1.46-0.51-1.73-1.25c-0.33-0.9,0.07-1.88,0.94-2.31c0.4-0.2,0.65-0.32,0.84-0.41
		c0.48-0.23,0.52-0.25,1.91-1.1c5.95-3.67,13.08-11.43,15.26-16.59c0.75-1.78,0.87-3.2,0.38-4.2c-0.4-0.8-1.22-1.36-2.46-1.68
		c-0.82-0.21-1.75-0.32-2.76-0.32c-3.12,0-6.61,1.03-8.87,2.62c-0.66,0.46-1.46,1.21-1.65,1.75c-0.26,0.71-0.93,1.18-1.67,1.18
		c-0.22,0-0.44-0.04-0.64-0.12c-0.61-0.25-1.01-0.7-1.12-1.27c-0.14-0.73,0.2-1.55,0.97-2.32c0.35-0.35,1.43-1.43,2.86-2.27
		c2.91-1.7,6.78-2.76,10.1-2.76c2.59,0,4.82,0.63,6.44,1.83c2.36,1.74,2.97,5.45,1.45,8.8c-2.46,5.44-8.53,12.23-16.21,18.14
		c-0.78,0.6-2.54,1.71-3.35,2.12C12.57,187.66,12.33,187.71,12.09,187.71z M21.51,155.62c-0.64,0-1.22-0.41-1.45-1.03
		c-0.53-1.38-2.04-3.63-3.57-4.06c-1-0.27-1.54-1.15-1.29-2.08c0.22-0.81,0.88-1.34,1.68-1.34c0.11,0,0.23,0.01,0.35,0.03
		c1.83,0.35,5.04,4.45,5.73,6.46c0.27,0.8-0.14,1.63-0.94,1.93C21.85,155.59,21.69,155.62,21.51,155.62z"/>
	<path class="st0" d="M43.49,205.46c-0.08,0-0.16,0-0.24-0.01c-1.15-0.16-2.32-0.68-3.61-1.59c-1.93-1.37-3.56-3.19-4.58-5.12
		c-0.36-0.61-1.13-1.94-1.27-3.07c-0.11-0.69,0.04-1.35,0.4-1.81c0.29-0.36,0.71-0.57,1.21-0.6c0.03,0,0.08-0.01,0.13-0.01
		c0.78,0,1.69,0.64,1.85,2.04c0.15,2.08,2.4,4.93,4.91,6.24c0.31,0.17,0.76,0.28,1.28,0.4c0.22,0.05,0.46,0.11,0.7,0.17
		c0.45,0.15,0.8,0.47,1,0.9c0.2,0.44,0.22,0.93,0.05,1.36C45.08,205.12,44.22,205.46,43.49,205.46z"/>
	<path class="st0" d="M37.87,274.9c-0.72,0-1.45-0.42-1.98-0.72l-0.1-0.06c-4.45-2.46-8.26-5.78-12.71-11.09
		c-0.43-0.56-0.82-1.13-1.2-1.69c-0.51-0.76-1.04-1.54-1.65-2.24c-0.14-0.16-0.24-0.2-0.27-0.2c-0.02,0-0.08,0.02-0.15,0.09
		c-0.36,0.34-0.76,0.67-1.15,1c-0.38,0.32-0.76,0.64-1.12,0.98c-2.49,2.25-5.92,5.71-7.69,7.97c-0.12,0.14-0.22,0.31-0.34,0.49
		c-0.44,0.67-1.03,1.59-2.08,1.59c-0.06,0-0.13,0-0.19-0.01c-0.63-0.04-1.2-0.46-1.46-1.09c-0.26-0.64-0.13-1.34,0.32-1.84
		c4.01-4.51,7.91-8.32,11.92-11.64c0.69-0.6,1.37-0.9,2.04-0.9c0.52,0,1.03,0.18,1.52,0.53c0.72,0.46,1.84,1.99,3.13,3.79
		c0.34,0.48,0.64,0.9,0.82,1.12c3.85,4.8,7.72,8.08,11.81,10.03c0.12,0.06,0.24,0.11,0.37,0.17c0.75,0.34,2.31,1.04,1.71,2.61
		C39.11,274.52,38.56,274.9,37.87,274.9z M35.53,260.42c-1.56,0-2.47-0.75-3.62-2.12c-1.2-1.48-1.97-3.65-1.97-5.53v-0.06
		c0-0.96,0.78-1.77,1.71-1.77c0.99,0,1.77,0.75,1.77,1.71c0,0.87,0.16,2.11,0.62,3.03c0.46,0.93,0.77,1.19,1.38,1.19
		c1.05,0,1.81,0.49,2.03,1.32c0.13,0.49,0.03,1.04-0.28,1.48c-0.3,0.43-0.75,0.69-1.25,0.74C35.78,260.41,35.65,260.42,35.53,260.42
		z M42.02,257.68c-2.94,0-6.88-4.83-7.23-7.98c-0.09-0.78,0.36-1.7,1.37-1.88c0.12-0.02,0.23-0.03,0.35-0.03
		c0.87,0,1.51,0.61,1.59,1.51c0.12,1.03,0.66,2.2,1.51,3.18c0.97,1.13,2.36,1.72,2.66,1.72c1.04,0,1.82,0.81,1.82,1.88
		c0,0.87-0.72,1.49-1.82,1.59C42.18,257.67,42.1,257.68,42.02,257.68z"/>
	<path class="st0" d="M13.31,328.22c-0.52,0-1.02-0.22-1.35-0.61c-0.33-0.38-0.47-0.87-0.39-1.39c0.3-2.12,1.93-3.96,3.24-5.44
		l0.22-0.25c4.95-5.56,12.08-11.56,18.16-15.29c0.25-0.15,0.5-0.32,0.76-0.49c0.86-0.57,1.82-1.21,2.81-1.41
		c0.12-0.03,0.26-0.04,0.39-0.04c0.66,0,1.27,0.37,1.59,0.97c0.31,0.58,0.28,1.26-0.08,1.81c-0.35,0.52-0.86,0.69-1.23,0.82
		c-0.48,0.16-0.93,0.42-1.42,0.69c-0.14,0.08-0.28,0.16-0.42,0.24c-1.05,0.61-2.14,1.24-3.15,1.91
		c-6.52,4.32-14.95,11.84-17.12,16.13c-0.07,0.13-0.12,0.35-0.16,0.55c-0.08,0.35-0.17,0.74-0.4,1.07
		C14.41,327.94,13.89,328.22,13.31,328.22z M17.62,313.76c-0.67,0-1.02-0.39-1.28-0.67c-0.07-0.08-0.14-0.16-0.23-0.23
		c-0.31-0.26-0.7-0.44-1.09-0.48c-0.23-0.02-0.48-0.04-0.72-0.04c-1.34,0-2.62,0.37-4.13,0.91l-0.11,0.04
		c-0.28,0.11-0.59,0.23-0.95,0.23c-0.33,0-0.63-0.1-0.89-0.3c-0.56-0.43-0.83-1.12-0.71-1.81c0.12-0.65,0.56-1.15,1.18-1.34
		c1.42-0.43,3.52-1,5.52-1c1.02,0,1.94,0.15,2.75,0.43c0.78,0.28,1.39,0.62,1.86,1.03c0.56,0.48,0.79,1.25,0.57,1.94
		c-0.22,0.7-0.83,1.19-1.6,1.26C17.72,313.76,17.67,313.76,17.62,313.76z M19.26,306.16c-0.64,0-1.15-0.37-1.61-0.69
		c-0.21-0.15-0.41-0.3-0.58-0.37c-0.91-0.4-2.02-0.6-3.31-0.6c-0.82,0-1.74,0.08-2.72,0.25c-0.66,0.11-1.26,0.22-1.9,0.43
		c-0.28,0.1-0.61,0.23-1,0.23c-0.34,0-0.67-0.1-0.97-0.3c-0.6-0.4-0.88-1.1-0.72-1.82c0.16-0.74,0.74-1.31,1.48-1.43
		c1.61-0.29,3.25-0.46,4.87-0.52c0.34-0.01,0.68-0.01,1.03-0.01c1.98,0,4.49,0.17,6.32,1.5c0.52,0.38,0.84,1.01,0.84,1.64
		c-0.01,0.56-0.27,1.05-0.73,1.37C19.94,306.05,19.61,306.16,19.26,306.16L19.26,306.16z M36.28,303.15
		c-2.25-0.14-3.14-1.92-4.01-3.65c-0.67-1.34-1.28-3.37-1.15-4.68c0.09-0.97,0.78-1.68,1.71-1.76c0.05,0,0.1-0.01,0.15-0.01
		c0.52,0,1,0.23,1.31,0.62c0.31,0.4,0.41,0.91,0.29,1.41c-0.16,0.63,0.52,2.8,0.93,3.69c0.12,0.27,0.46,0.89,0.91,0.89
		c1.38,0,1.92,0.62,2.12,1.14c0.2,0.5,0.15,1.01-0.14,1.44c-0.38,0.56-1.13,0.91-1.96,0.91C36.38,303.15,36.33,303.15,36.28,303.15z
		 M42.14,300.08c-0.08,0-0.16,0-0.24-0.01c-1.1-0.08-3.3-1.91-4.52-3.76c-0.8-1.26-1.76-3.15-1.76-5.02c0-0.97,0.67-1.74,1.6-1.82
		c0.05,0,0.1-0.01,0.15-0.01c0.94,0,1.73,0.79,1.73,1.72c0,0.71,0.13,2.1,1.02,3.34c0.94,1.33,1.9,2.05,2.18,2.08c0,0,0,0,0,0
		c0.49,0,0.93,0.21,1.25,0.58c0.34,0.4,0.48,0.93,0.39,1.46C43.81,299.52,43.11,300.08,42.14,300.08z"/>
	<path class="st0" d="M12.55,372.89c-0.39,0-0.76-0.14-1.1-0.42c-0.4-0.34-0.62-0.74-0.64-1.18c-0.04-0.84,0.63-1.53,1.17-2.08
		c0.09-0.1,0.18-0.19,0.26-0.27c0.78-0.88,1.58-1.91,2.52-3.24c2.15-3.12,4.61-7.16,6.8-11.15c-1.25-0.69-2.72-1.36-3.62-1.64
		c-0.13-0.04-0.32-0.07-0.53-0.09c0.03,0.32,0.05,0.68-0.05,1.07c-0.14,0.72-0.89,1.31-1.7,1.31c-0.16,0-0.31-0.02-0.46-0.07
		c-1.62-0.49-1.37-2.45-1.25-3.4l0.01-0.08c0.38-3.24,1.3-6.57,2.73-9.92l0.08-0.19c0.73-1.74,1.48-3.54,2.7-4.99
		c0.49-0.6,1.09-0.94,1.67-0.94c0.42,0,0.81,0.17,1.14,0.5c0.37,0.37,0.57,0.87,0.56,1.37c-0.01,0.33-0.11,0.63-0.29,0.88
		c0.16,0,0.33,0,0.49,0c1.57,0,3.16,0.14,4.84,0.43c0.55,0.09,2.01,0.33,2.52,1.44c0.57,1.21-0.02,2.89-0.38,3.89
		c-0.89,2.44-2.38,5.72-4.23,9.29c0,0,0,0,0,0c0.78,0.61,1.2,1.38,1.15,2.1c-0.04,0.56-0.36,1.05-0.9,1.37
		c-0.24,0.13-0.5,0.2-0.76,0.2c-0.45,0-0.88-0.17-1.23-0.46c-3.22,5.84-6.75,11.48-9.12,14.53l-0.04,0.05
		C14.36,371.89,13.59,372.89,12.55,372.89z M17.71,349.37c1.53,0.52,3.62,1.5,5.33,2.37l1.14-2.23c1.08-2.17,2.89-6.08,3.32-7.48
		c0.01-0.04,0.02-0.08,0.03-0.12c-1.16-0.32-2.66-0.51-4.16-0.51c-0.7,0-1.39,0.04-2.04,0.12c-0.18,0.02-0.42,0.12-0.67,0.24
		c-0.19,0.08-0.39,0.17-0.61,0.24c-0.62,1.36-1.08,2.85-1.49,4.18l-0.06,0.21C18.15,347.52,17.9,348.51,17.71,349.37z"/>
	<path class="st0" d="M15.8,422.96c-0.68,0-1.32-0.37-1.64-0.94c-0.28-0.49-0.26-1.06,0.04-1.56c0.19-0.32,0.52-0.59,0.85-0.85
		l0.2-0.16c3.9-3.27,8.35-10.57,10.84-15.98c0.49-1.06,0.41-1.31,0.4-1.33c0,0,0,0,0,0c0,0-0.13-0.09-0.64-0.09
		c-0.98,0-2.7,0.33-5.09,0.8l-1.62,0.31c-2.62,0.49-5,1.13-7.08,1.91c-0.33,0.12-0.65,0.22-0.97,0.32c-0.31,0.1-0.61,0.19-0.92,0.31
		c-0.3,0.11-0.66,0.24-1.05,0.24c-0.23,0-0.46-0.05-0.67-0.14c-0.64-0.3-1.01-0.95-0.96-1.67c0.05-0.74,0.52-1.35,1.19-1.56
		c5.15-1.6,12.92-3.29,17.17-3.29c1.82,0,2.9,0.3,3.41,0.93c1.45,1.79,0.08,4.45-2,8.01l-0.53,0.89c-2.31,3.89-4.7,7.92-7.76,11.31
		c-0.18,0.19-0.35,0.39-0.53,0.59c-0.47,0.53-0.95,1.08-1.48,1.52C16.64,422.8,16.24,422.96,15.8,422.96z M36.62,399.64
		c-1.45,0-2.66-0.69-3.95-2.23c-1.2-1.5-1.91-3.63-1.91-5.71c0-1.02,0.78-1.82,1.71-1.82c0.94,0,1.71,0.77,1.71,1.71l0,0.24
		c0,1.05-0.01,1.81,0.61,3.01c0.45,0.85,1.01,1.26,1.72,1.26c0.96,0,1.68,0.49,1.96,1.34c0.14,0.47,0.05,1-0.24,1.43
		c-0.3,0.44-0.76,0.72-1.27,0.76C36.85,399.64,36.74,399.64,36.62,399.64z M42.97,397.99c-0.41,0-0.89-0.12-1.41-0.36
		c-2.1-0.99-4.05-3.75-4.73-5.85l-0.1-0.31c-0.22-0.7-0.5-1.58-0.44-2.43c0.09-0.97,0.74-1.7,1.59-1.78
		c0.06-0.01,0.11-0.01,0.16-0.01c0.49,0,0.98,0.22,1.31,0.58c0.31,0.34,0.45,0.76,0.41,1.19c-0.07,0.73-0.04,2.14,0.91,3.45
		c1.04,1.39,1.95,2.02,2.34,2.02c0.42,0,0.82,0.19,1.11,0.53c0.36,0.42,0.52,1.05,0.42,1.62C44.43,397.47,43.83,397.99,42.97,397.99
		z"/>
	<path class="st0" d="M9.25,469.42c-0.49,0-1.04-0.15-1.51-0.42c-2.09-1.2-3.07-3.66-2.82-7.09c0.5-7.33,5.39-18.42,9.43-25.69
		l0.36-0.65c1.18-2.15,1.75-3.12,2.33-3.38c0.23-0.1,0.47-0.15,0.72-0.15c0.66,0,1.3,0.39,1.61,0.99c0.3,0.58,0.25,1.26-0.13,1.81
		c-2.31,3.27-5.64,9.7-7.92,15.27c-3.18,7.71-4.11,13.31-2.54,15.35c0.12,0.16,0.42,0.3,0.7,0.44c0.63,0.31,1.59,0.78,1.48,1.99
		C10.87,468.83,10.22,469.42,9.25,469.42z M22.34,456.8c-0.36,0-0.67-0.04-0.92-0.13c-1.84-0.61-1.74-2.79-1.63-5.3
		c0.09-1.8,0.17-2.75,0.31-4.2c0.05-0.49,0.1-1.04,0.15-1.7c0.01-0.17,0.02-0.35,0.03-0.55c0.02-0.64,0.05-1.36,0.31-1.94
		c0.33-0.75,0.86-1.13,1.57-1.13c0.11,0,0.23,0.01,0.35,0.03c0.45,0.07,0.83,0.3,1.08,0.67c0.32,0.46,0.42,1.09,0.28,1.78
		c-0.8,4.15-1.26,8.03-1.12,9.23c0.95-0.41,2.95-1.65,4.46-2.6l0.62-0.39c1.1-0.7,2.39-1.56,3.51-2.56l0.28-0.24
		c0.35-0.3,0.71-0.61,0.95-0.92c0.47-0.6,1.09-0.92,1.75-0.92c0.39,0,0.77,0.12,1.07,0.34c0.35,0.25,0.55,0.62,0.59,1.04
		c0.05,0.65-0.32,1.41-1.03,2.12c-2.07,2.07-4.67,3.59-7.19,5.06l-0.58,0.34l-0.46,0.27c-1.14,0.69-2.44,1.47-3.77,1.63
		C22.76,456.79,22.55,456.8,22.34,456.8z"/>
</g>
</svg>
