<?xml version="1.0" encoding="utf-8"?>
<!-- Generator: Adobe Illustrator 15.1.0, SVG Export Plug-In . SVG Version: 6.00 Build 0)  -->
<!DOCTYPE svg PUBLIC "-//W3C//DTD SVG 1.1//EN" "http://www.w3.org/Graphics/SVG/1.1/DTD/svg11.dtd">
<svg version="1.1" id="レイヤー_1" xmlns="http://www.w3.org/2000/svg" xmlns:xlink="http://www.w3.org/1999/xlink" x="0px"
	 y="0px" width="1200px" height="76.245px" viewBox="115 493.756 1200 76.245" enable-background="new 115 493.756 1200 76.245"
	 xml:space="preserve">
<g id="レイヤー_1_1_">
</g>
<g id="レイヤー_2">
	<g>
		<g>
			
				<ellipse transform="matrix(0.3439 -0.939 0.939 0.3439 -245.0445 703.9478)" fill="#006946" cx="381.236" cy="527.332" rx="3.5" ry="8.169"/>
			
				<ellipse transform="matrix(-0.2152 -0.9766 0.9766 -0.2152 -34.6413 1029.4763)" fill="#006946" cx="396.35" cy="528.658" rx="3.501" ry="8.169"/>
			<path fill="#006946" d="M387.601,549.051c-0.044,0.393-0.397,0.677-0.791,0.632l0,0c-0.393-0.043-0.677-0.396-0.633-0.79
				l2.213-19.932c0.044-0.395,0.398-0.678,0.791-0.634l0,0c0.393,0.044,0.676,0.397,0.633,0.791L387.601,549.051z"/>
		</g>
		<g>
			
				<ellipse transform="matrix(0.2403 -0.9707 0.9707 0.2403 -6.8502 1052.7263)" fill="#006946" cx="669.132" cy="530.74" rx="3.501" ry="8.169"/>
			
				<ellipse transform="matrix(-0.3196 -0.9475 0.9475 -0.3196 400.358 1348.2579)" fill="#006946" cx="684.236" cy="530.391" rx="3.5" ry="8.168"/>
			<path fill="#006946" d="M677.786,551.658c-0.001,0.396-0.322,0.715-0.718,0.714l0,0c-0.396-0.002-0.716-0.32-0.716-0.718
				l0.043-20.055c0.002-0.397,0.323-0.715,0.719-0.713l0,0c0.396-0.001,0.716,0.317,0.715,0.716L677.786,551.658z"/>
		</g>
		<g>
			
				<ellipse transform="matrix(0.2403 -0.9707 0.9707 0.2403 318.1948 1462.0154)" fill="#006946" cx="1093.138" cy="527.722" rx="3.501" ry="8.169"/>
			
				<ellipse transform="matrix(-0.3196 -0.9476 0.9476 -0.3196 962.629 1746.0406)" fill="#006946" cx="1108.214" cy="527.397" rx="3.5" ry="8.169"/>
			<path fill="#006946" d="M1101.786,548.658c-0.001,0.396-0.322,0.715-0.718,0.714l0,0c-0.396-0.002-0.716-0.32-0.716-0.718
				l0.043-20.055c0.002-0.397,0.322-0.715,0.719-0.713l0,0c0.396-0.001,0.716,0.317,0.715,0.716L1101.786,548.658z"/>
		</g>
		<g>
			<path fill="#006946" d="M920.275,536.299c0.016,1.683-3.145,3.08-7.069,3.126c-3.921,0.043-7.118-1.282-7.139-2.963
				c-0.02-1.684,3.146-3.082,7.07-3.126C917.06,533.291,920.255,534.615,920.275,536.299z"/>
			<path fill="#006946" d="M931.806,528.877c0.926,1.406-0.989,4.285-4.273,6.435c-3.282,2.15-6.689,2.747-7.613,1.345
				c-0.919-1.409,0.994-4.292,4.28-6.438C927.479,528.068,930.888,527.466,931.806,528.877z"/>
			<path fill="#006946" d="M925.05,552.071c0.084,0.331-0.116,0.671-0.448,0.759l0,0c-0.335,0.083-0.676-0.115-0.759-0.448
				l-4.349-16.892c-0.088-0.333,0.112-0.669,0.448-0.753l0,0c0.331-0.09,0.67,0.11,0.759,0.443L925.05,552.071z"/>
		</g>
		<g>
			
				<ellipse transform="matrix(0.6039 -0.7971 0.7971 0.6039 -32.0383 987.9378)" fill="#006946" cx="977.983" cy="526.204" rx="2.538" ry="5.921"/>
			
				<ellipse transform="matrix(0.0803 -0.9968 0.9968 0.0803 380.3654 1472.7356)" fill="#006946" cx="988.224" cy="530.257" rx="2.537" ry="5.923"/>
			<path fill="#006946" d="M977.785,542.57c-0.113,0.263-0.42,0.384-0.683,0.271l0,0c-0.264-0.116-0.386-0.419-0.271-0.685
				l5.765-13.345c0.115-0.265,0.419-0.384,0.685-0.271l0,0c0.263,0.113,0.385,0.418,0.271,0.683L977.785,542.57z"/>
		</g>
		<g>
			<path fill="#006946" d="M322.604,528.972c-0.104,1.275-2.781,2.19-5.979,2.043c-3.198-0.146-5.705-1.299-5.601-2.575
				s2.781-2.191,5.979-2.044C320.2,526.544,322.708,527.695,322.604,528.972z"/>
			<path fill="#006946" d="M332.525,523.875c0.65,1.108-1.116,3.204-3.942,4.684c-2.827,1.477-5.645,1.773-6.293,0.666
				c-0.65-1.109,1.115-3.206,3.942-4.684C329.058,523.064,331.875,522.767,332.525,523.875z"/>
			<path fill="#006946" d="M325.364,541.15c0.045,0.255-0.141,0.504-0.419,0.553l0,0c-0.277,0.052-0.54-0.116-0.585-0.374
				l-2.334-13.005c-0.046-0.257,0.142-0.505,0.419-0.555l0,0c0.277-0.05,0.539,0.117,0.586,0.375L325.364,541.15z"/>
		</g>
		<g>
			<g>
				
					<ellipse transform="matrix(0.3439 -0.939 0.939 0.3439 -84.4724 916.6461)" fill="#006946" cx="613.697" cy="518.77" rx="2.826" ry="6.597"/>
				
					<ellipse transform="matrix(-0.2153 -0.9766 0.9766 -0.2153 253.0467 1243.0063)" fill="#006946" cx="625.938" cy="519.834" rx="2.826" ry="6.595"/>
				<path fill="#006946" d="M618.862,536.293c-0.036,0.316-0.321,0.546-0.64,0.511l0,0c-0.316-0.035-0.546-0.321-0.511-0.64
					l1.787-16.091c0.035-0.317,0.321-0.546,0.639-0.512l0,0c0.317,0.036,0.546,0.321,0.512,0.639L618.862,536.293z"/>
			</g>
			<g>
				
					<ellipse transform="matrix(0.344 -0.939 0.939 0.344 -71.2236 910.9541)" fill="#006946" cx="616.322" cy="506.449" rx="2.437" ry="5.689"/>
				
					<ellipse transform="matrix(-0.2153 -0.9765 0.9765 -0.2153 266.3655 1228.7544)" fill="#006946" cx="626.864" cy="507.359" rx="2.438" ry="5.69"/>
				<path fill="#006946" d="M620.742,521.584c-0.03,0.273-0.277,0.472-0.551,0.44l0,0c-0.273-0.031-0.472-0.277-0.441-0.551
					l1.542-13.88c0.03-0.274,0.277-0.472,0.551-0.44l0,0c0.274,0.03,0.472,0.276,0.441,0.551L620.742,521.584z"/>
			</g>
		</g>
		<g>
			<g>
				
					<ellipse transform="matrix(0.3798 -0.9251 0.9251 0.3798 -36.5892 1000.4249)" fill="#006946" cx="727.784" cy="527.499" rx="2.826" ry="6.596"/>
				
					<ellipse transform="matrix(-0.1773 -0.9842 0.9842 -0.1773 350.4405 1351.1172)" fill="#006946" cx="739.965" cy="529.08" rx="2.826" ry="6.595"/>
				<path fill="#006946" d="M732.244,545.242c-0.047,0.316-0.342,0.533-0.658,0.486l0,0c-0.315-0.047-0.534-0.343-0.485-0.658
					l2.407-16.009c0.047-0.317,0.342-0.534,0.657-0.487l0,0c0.316,0.048,0.534,0.344,0.486,0.658L732.244,545.242z"/>
			</g>
			
				<ellipse transform="matrix(0.1501 -0.9887 0.9887 0.1501 106.4039 1159.0667)" fill="#006946" cx="727.391" cy="517.642" rx="2.436" ry="5.689"/>
			
				<ellipse transform="matrix(-0.4052 -0.9142 0.9142 -0.4052 564.72 1400.292)" fill="#006946" cx="737.903" cy="516.431" rx="2.438" ry="5.69"/>
			<path fill="#006946" d="M734.781,531.591c0.024,0.274-0.177,0.518-0.452,0.543l0,0c-0.273,0.022-0.516-0.18-0.541-0.453
				l-1.25-13.908c-0.024-0.275,0.178-0.517,0.453-0.541l0,0c0.273-0.025,0.517,0.177,0.542,0.451L734.781,531.591z"/>
			<g>
				<path fill="#006946" d="M733.667,518.756c0.018,0.189-0.133,0.358-0.337,0.378l0,0c-0.203,0.018-0.381-0.122-0.399-0.313
					l-0.866-9.641c-0.018-0.19,0.134-0.358,0.338-0.376l0,0c0.204-0.021,0.382,0.12,0.398,0.31L733.667,518.756z"/>
				
					<ellipse transform="matrix(0.1504 -0.9886 0.9886 0.1504 116.9697 1152.6001)" fill="#006946" cx="729.065" cy="508.247" rx="1.65" ry="3.852"/>
				
					<ellipse transform="matrix(-0.4052 -0.9142 0.9142 -0.4052 570.569 1386.1216)" fill="#006946" cx="736.189" cy="507.455" rx="1.651" ry="3.853"/>
			</g>
		</g>
		<g>
			<polygon fill="#E2A059" points="821.521,523.857 775.804,518.757 778.594,493.756 824.31,498.856 838.763,512.371 			"/>
			<path fill="#E2A059" d="M799.651,560.243c-0.141,1.26-1.274,2.165-2.533,2.025l-0.128-0.016
				c-1.261-0.141-2.167-1.274-2.027-2.534l4.199-37.631c0.142-1.26,1.276-2.165,2.535-2.025l0.128,0.015
				c1.259,0.142,2.167,1.275,2.024,2.535L799.651,560.243z"/>
			<g>
				<path d="M789.027,506.157c-0.573,0.126-1.275,0.186-2.067,0.19c-0.073,0.657-0.165,1.385-0.232,1.989
					c0.846-0.19,1.741-0.291,2.408-0.218c1.771,0.198,2.77,1.28,2.604,2.749c-0.153,1.374-1.117,2.354-2.723,2.176
					c-0.771-0.087-1.438-0.436-1.92-1.229c0.144-0.142,0.313-0.334,0.438-0.5c0.438,0.703,0.966,0.974,1.57,1.041
					c1.104,0.123,1.775-0.604,1.884-1.572c0.112-1.011-0.538-1.885-1.937-2.029c-0.668-0.064-1.552,0.026-2.398,0.237
					c-0.086,0.771-0.203,2.015-0.235,2.306c-0.104,0.938-0.8,1.588-1.821,1.475c-0.958-0.106-1.694-0.791-1.581-1.802
					c0.073-0.667,0.638-1.363,1.525-1.854c0.404-0.219,0.913-0.436,1.469-0.596l0.245-2.198c-0.842-0.021-1.676-0.103-2.508-0.206
					l0.068-0.71c0.915,0.113,1.75,0.195,2.518,0.219l0.218-1.947l1.045,0.179c-0.023,0.125-0.137,0.187-0.315,0.188
					c-0.066,0.403-0.146,1.018-0.221,1.601c0.708-0.006,1.357-0.081,1.925-0.229L789.027,506.157z M785.725,511.18
					c0.03-0.271,0.115-1.126,0.211-1.98c-0.403,0.135-0.794,0.313-1.131,0.496c-0.585,0.324-1.057,0.862-1.106,1.321
					c-0.062,0.541,0.243,1.029,0.951,1.108c0.53,0.06,0.999-0.259,1.073-0.937L785.725,511.18z M792.066,507.752
					c-0.473-0.591-1.405-1.308-2.207-1.766l0.433-0.574c0.854,0.485,1.786,1.19,2.303,1.775L792.066,507.752z"/>
				<path d="M793.892,513.473c-0.239-0.786-0.189-2.354-0.037-3.717c0.153-1.388,0.566-3.103,1.104-4.804l0.988,0.312
					c-0.032,0.102-0.145,0.163-0.291,0.157c-0.534,1.386-0.971,3.215-1.104,4.423c-0.089,0.792-0.167,1.585-0.127,1.979
					c0.3-0.599,0.827-1.553,1.102-2.018l0.42,0.489c-0.423,0.67-1.329,2.172-1.385,2.661c-0.016,0.146-0.002,0.307,0.05,0.512
					L793.892,513.473z M797.223,507.631c0.874,0.107,1.748,0.217,2.632,0.252c0.058-0.9,0.111-1.675,0.177-2.448l1.05,0.148
					c-0.021,0.104-0.126,0.176-0.296,0.188c-0.063,0.668-0.119,1.348-0.187,2.142c0.832,0.01,1.517-0.063,2.088-0.188l0.013,0.739
					c-0.518,0.101-1.253,0.167-2.146,0.141c-0.087,1.161-0.171,2.386-0.215,3.056c0.756,0.412,1.491,1.012,1.979,1.562l-0.481,0.622
					c-0.379-0.477-0.942-1.002-1.555-1.377c-0.109,0.885-0.388,1.855-1.95,1.682c-1.218-0.136-1.966-0.811-1.863-1.728
					c0.118-1.063,1.244-1.412,2.202-1.306c0.323,0.036,0.662,0.116,0.976,0.246c0.041-0.66,0.102-1.761,0.163-2.787
					c-0.324-0.016-0.765-0.054-1.066-0.088l-1.584-0.176L797.223,507.631z M799.62,512.045c-0.322-0.144-0.667-0.266-1.011-0.304
					c-0.636-0.07-1.421,0.073-1.494,0.729c-0.064,0.583,0.526,0.944,1.287,1.028c0.771,0.087,1.095-0.257,1.188-1.091
					L799.62,512.045z"/>
				<path d="M803.65,510.859c0.885-0.745,2.733-2.396,3.399-2.965c0.301-0.24,0.585-0.335,0.855-0.305
					c0.281,0.03,0.547,0.209,0.801,0.489c1.206,1.379,3.105,4.027,4.45,6.244l-0.688,0.504c-1.251-2.218-3.151-4.93-4.198-6.144
					c-0.158-0.187-0.283-0.295-0.419-0.311s-0.271,0.074-0.455,0.214c-0.551,0.477-2.267,2.057-3.048,2.729
					c0.008,0.022,0.005,0.054,0.001,0.074c-0.009,0.084-0.061,0.162-0.128,0.207L803.65,510.859z M811.04,507.307
					c0.433,0.47,0.892,1.175,1.144,1.667l-0.432,0.269c-0.25-0.491-0.728-1.229-1.133-1.666L811.04,507.307z M812.371,506.526
					c0.432,0.481,0.904,1.167,1.154,1.669l-0.433,0.27c-0.251-0.492-0.739-1.223-1.134-1.656L812.371,506.526z"/>
				<path d="M815.195,510.007c0.914,0.313,2.037,0.839,2.696,1.25l-0.386,0.621c-0.649-0.409-1.801-0.96-2.693-1.271
					L815.195,510.007z M815.252,515.171c3.471-0.752,6.039-2.322,7.761-5.273c0.143,0.152,0.429,0.417,0.583,0.54
					c-1.737,2.918-4.427,4.601-7.696,5.364c0.021,0.098-0.056,0.216-0.145,0.247L815.252,515.171z M816.63,507.551
					c0.91,0.354,2.009,0.898,2.679,1.332l-0.416,0.597c-0.696-0.457-1.732-0.994-2.643-1.359L816.63,507.551z M821.544,507.751
					c0.387,0.411,0.907,1.124,1.175,1.659l-0.438,0.258c-0.241-0.48-0.77-1.246-1.154-1.67L821.544,507.751z M823.062,507.277
					c0.39,0.412,0.908,1.135,1.188,1.65l-0.441,0.258c-0.261-0.494-0.77-1.226-1.153-1.648L823.062,507.277z"/>
			</g>
		</g>
		<path fill="#AC6525" d="M1137.2,560c0.117-0.022,0.236-0.04,0.354-0.063c-4.985-4.779-13.887-8.799-19.85-13.213
			c-5.629-4.074-9.25-5.404-16.113-4.942c-8.492,0.835-13.025,3.689-19.818,8.315c-3.786,2.971-9.602,7.909-14.65,9.903H1009.2
			c0.117-0.022,0.236-0.04,0.354-0.063c-4.985-4.779-13.887-8.799-19.85-13.213c-5.629-4.074-9.25-5.404-16.113-4.942
			c-8.492,0.835-13.024,3.689-19.818,8.315c-0.401,0.314-0.833,0.658-1.277,1.012c-2.422-1.446-4.774-2.893-6.79-4.385
			c-5.629-4.074-9.25-5.404-16.113-4.942c-8.491,0.835-13.024,3.689-19.818,8.315c-3.786,2.971-9.602,7.909-14.65,9.903H766.2
			c0.118-0.022,0.236-0.04,0.354-0.063c-4.985-4.779-13.887-8.799-19.85-13.213c-5.629-4.074-9.25-5.404-16.113-4.942
			c-8.492,0.835-13.025,3.689-19.819,8.315c-2.232,1.751-5.172,4.188-8.242,6.306c-4.116-2.945-9.19-5.711-12.901-8.621
			c-4.8-3.681-7.92-4.926-13.903-4.688c-7.04,0.495-11.018,2.665-16.561,6.191c-6.061-3.854-12.283-7.644-17.281-11.563
			c-9.729-7.46-16.053-9.983-28.182-9.503c-15.021,1.058-23.157,5.87-35.367,13.699c-8.149,6.036-21.548,16.915-31.375,18.032
			l3.464,0.037c0.194,0.002,0.389,0.01,0.583,0.013H425.392c0.851-0.123,1.693-0.259,2.525-0.413
			c-5.289-5.25-14.793-9.732-21.134-14.604c-5.989-4.495-9.86-5.988-17.239-5.588c-9.136,0.78-14.047,3.806-21.413,8.717
			c-1.64,1.263-3.634,2.859-5.782,4.457c-4.598-2.824-9.433-5.575-13.264-8.458c-6.813-5.009-11.2-6.65-19.529-6.118
			c-10.307,0.981-15.819,4.452-24.082,10.08c-4.526,3.556-11.438,9.431-17.499,11.927H115v10h1200v-10L1137.2,560L1137.2,560z"/>
	</g>
</g>
</svg>
