<?xml version="1.0" encoding="utf-8"?>
<!-- Generator: Adobe Illustrator 15.1.0, SVG Export Plug-In . SVG Version: 6.00 Build 0)  -->
<!DOCTYPE svg PUBLIC "-//W3C//DTD SVG 1.1//EN" "http://www.w3.org/Graphics/SVG/1.1/DTD/svg11.dtd">
<svg version="1.1" id="レイヤー_1" xmlns="http://www.w3.org/2000/svg" xmlns:xlink="http://www.w3.org/1999/xlink" x="0px"
	 y="0px" width="93.385px" height="1.074px" viewBox="0 0 93.385 1.074" style="enable-background:new 0 0 93.385 1.074;"
	 xml:space="preserve">
<g>
	<g>
		<path d="M61.361,0.579c2.445,0.024,4.879,0.317,7.325,0.341c0.199,0.002,1.101-0.384,0.627-0.389
			c-2.445-0.024-4.879-0.317-7.325-0.341C61.789,0.188,60.887,0.575,61.361,0.579L61.361,0.579z"/>
	</g>
</g>
<g>
	<g>
		<path d="M73.4,0.958c0.341,0,0.682,0,1.022,0c0.21,0,0.5-0.081,0.643-0.247c0.149-0.174-0.128-0.218-0.244-0.218
			c-0.341,0-0.682,0-1.022,0c-0.21,0-0.5,0.081-0.643,0.247C73.006,0.914,73.284,0.958,73.4,0.958L73.4,0.958z"/>
	</g>
</g>
<g>
	<g>
		<path d="M78.347,0.812c2.557-0.012,5.109-0.158,7.666-0.17c0.337-0.001,1.036-0.516,0.385-0.513
			c-2.557,0.012-5.109,0.158-7.666,0.17C78.395,0.3,77.696,0.815,78.347,0.812L78.347,0.812z"/>
	</g>
</g>
<g>
	<g>
		<path d="M90.75,0.575c0.53,0.158,1.066,0.181,1.617,0.182c0.232,0,0.484-0.055,0.683-0.183c0.149-0.097,0.132-0.221-0.06-0.221
			c-0.495,0-0.971-0.017-1.449-0.159c-0.206-0.062-0.491,0.032-0.676,0.121C90.777,0.358,90.541,0.513,90.75,0.575L90.75,0.575z"/>
	</g>
</g>
<g>
	<g>
		<path d="M27.36,0.579c2.446,0.024,4.879,0.317,7.325,0.341c0.2,0.002,1.101-0.384,0.628-0.389
			c-2.446-0.024-4.879-0.317-7.325-0.341C27.789,0.188,26.887,0.575,27.36,0.579L27.36,0.579z"/>
	</g>
</g>
<g>
	<g>
		<path d="M39.4,0.958c0.341,0,0.682,0,1.022,0c0.21,0,0.5-0.081,0.643-0.247c0.149-0.174-0.128-0.218-0.244-0.218
			c-0.341,0-0.682,0-1.022,0c-0.21,0-0.5,0.081-0.643,0.247C39.006,0.914,39.284,0.958,39.4,0.958L39.4,0.958z"/>
	</g>
</g>
<g>
	<g>
		<path d="M44.347,0.812c2.556-0.012,5.109-0.158,7.666-0.17c0.337-0.001,1.036-0.516,0.385-0.513
			c-2.557,0.012-5.109,0.158-7.666,0.17C44.395,0.3,43.696,0.815,44.347,0.812L44.347,0.812z"/>
	</g>
</g>
<g>
	<g>
		<path d="M56.75,0.575c0.53,0.158,1.066,0.181,1.617,0.182c0.232,0,0.484-0.055,0.683-0.183c0.149-0.097,0.132-0.221-0.06-0.221
			c-0.495,0-0.971-0.017-1.449-0.159c-0.206-0.062-0.491,0.032-0.676,0.121C56.777,0.358,56.541,0.513,56.75,0.575L56.75,0.575z"/>
	</g>
</g>
<g>
	<g>
		<path d="M0.36,0.579C2.807,0.603,5.239,0.896,7.686,0.92c0.2,0.002,1.101-0.384,0.628-0.389C5.867,0.507,3.435,0.214,0.988,0.19
			C0.789,0.188-0.113,0.575,0.36,0.579L0.36,0.579z"/>
	</g>
</g>
<g>
	<g>
		<path d="M12.4,0.958c0.341,0,0.682,0,1.022,0c0.21,0,0.5-0.081,0.643-0.247c0.149-0.174-0.128-0.218-0.244-0.218
			c-0.341,0-0.682,0-1.022,0c-0.21,0-0.5,0.081-0.643,0.247C12.006,0.914,12.284,0.958,12.4,0.958L12.4,0.958z"/>
	</g>
</g>
<g>
	<g>
		<path d="M17.347,0.812c2.556-0.012,5.109-0.158,7.666-0.17c0.337-0.001,1.036-0.516,0.385-0.513
			c-2.556,0.012-5.109,0.158-7.666,0.17C17.395,0.3,16.696,0.815,17.347,0.812L17.347,0.812z"/>
	</g>
</g>
<g>
	<g>
		<path d="M29.75,0.575c0.531,0.158,1.066,0.181,1.617,0.182c0.233,0,0.485-0.055,0.683-0.183c0.149-0.097,0.132-0.221-0.059-0.221
			c-0.496,0-0.971-0.017-1.449-0.159c-0.207-0.062-0.492,0.032-0.676,0.121C29.776,0.358,29.541,0.513,29.75,0.575L29.75,0.575z"/>
	</g>
</g>
</svg>
